<svg id="Layer_1" data-name="Layer 1" xmlns="http://www.w3.org/2000/svg" xmlns:xlink="http://www.w3.org/1999/xlink" viewBox="0 0 880.25 273.2">
  <defs>
    <linearGradient id="linear-gradient" x1="122.25" y1="764.72" x2="122.25" y2="492" gradientTransform="translate(0 -492)" gradientUnits="userSpaceOnUse">
      <stop offset="0" stop-color="#53c697"/>
      <stop offset="0.23" stop-color="#4bbd98"/>
      <stop offset="0.62" stop-color="#37a39a"/>
      <stop offset="0.99" stop-color="#1e849d"/>
    </linearGradient>
  </defs>
  <title>logo-primary</title>
  <path id="g3xg6c89yK" d="M224.9,0l1.1.1,1,.1,1,.1,1,.2.9.2.9.2.9.2.9.3.8.3.8.3.8.3.7.4.7.4.7.4.6.5.6.5.6.5.5.6.5.6.5.6.5.6.4.6.4.7.4.7.3.8.3.8.3.8.2.8.2.9.2.9.2.9.1.9.1,1,.1,1v9.2l-.1,2v156l.1,8.4v37.7l-.1.5-.1.5-.1.5-.1.5-.1.5-.1.4-.2.5-.2.4-.2.4-.2.4-.2.4-.2.4-.2.4-.3.4-.3.4-.3.4-.3.4-.3.3-.4.3-.4.3-.4.3-.4.3-.4.3-.4.3-.4.3-.5.3-.5.2-.5.2-.5.2-.5.2-.5.2-.6.2-.6.2-.6.2-.6.2-.6.2-.7.2-.8.2-.9.2-1,.3-1.2.3-1.3.3-1.4.3-1.5.4-1.6.4-1.8.4-1.9.4-2,.5-2.1.5-2.2.5-2.3.6-2.4.6-2.6.6-2.7.7-2.8.7-2.9.7-3,.7-3.2.8-3.3.8-3.4.8-3.5.9-3.6.9-3.8.9-3.9.9-4,1-4.1,1-4.2,1-4.3,1-4.5,1.1-4.7,1.1-4.7,1.1-4.8,1.2-4.9,1.2-5,1.2-5.2,1.3-5.3,1.3-.7.1-.7.1-.7.1-.7.1-.7.1h-3l-.5-.1-.5-.1-.5-.1-.5-.1-.5-.1-.5-.1-.5-.2-.4-.2-.4-.2-.4-.2-.3-.2-.3-.3-.3-.3-.3-.3-.3-.3-.3-.4-.3-.4-.2-.4-.2-.4-.2-.4-.2-.4-.2-.5-.1-.5-.1-.5-.1-.5-.1-.5-.1-.6V254.3l.1-.6.1-.6.1-.6v-4l-.1-.4-.1-.4-.1-.4-.1-.4-.1-.4L97,246l-.1-.3-.1-.4-.1-.3-.2-.3-.2-.3-.2-.3-.2-.3-.2-.2-.2-.2-.2-.2L95,243l-.2-.2-.3-.2-.3-.1-.3-.1-.3-.1-.3-.1L93,242l-.3-.1-.3-.1-.4-.1H22.4l-1.1.1h-4l-.9-.1-.9-.1-.9-.1-.9-.1-.8-.1-.8-.2-.8-.2-.7-.2-.7-.2-.7-.5-.7-.3-.7-.3-.5-.4-.6-.4-.6-.4-.5-.4-.5-.5-.5-.5-.5-.5-.4-.5-.4-.6-.4-.6-.3-.6-.3-.6-.3-.5-.3-.7-.2-.7-.2-.7-.3-.7-.2-.8-.1-.8-.1-.8-.1-.8V21.5l-.1-1v-4l.1-.9.1-.9.1-.9.2-.9.2-.9.2-.8.3-.8.3-.7L2.2,9l.4-.7L3,7.7l.4-.6.4-.6.5-.6.5-.5.5-.5L6,4.4l.6-.5.6-.4L7.8,3l.7-.4.7-.3L10,2l.8-.3.8-.3.9-.2.9-.2.9-.2,1-.2,1-.2,1-.1,1-.1,1-.1H223.8ZM86.2,171.4l22.7,1L160.1,46.2h-21ZM52.4,81.2l-2.5,1.1-2.3,1.4-2,1.7-1.7,2-1.4,2.3-1.1,2.5-.7,2.7-.2,2.8.2,2.8.7,2.7,1.1,2.5,1.4,2.3,1.7,2,2,1.7,2.3,1.4,2.5,1.1,2.6.8,2.8.2,2.8-.2,2.7-.7,2.5-1.1,2.3-1.4,2-1.7,1.7-2,1.4-2.3,1.1-2.5.7-2.7.2-2.8L75.1,95l-.7-2.7-1.1-2.5L72,87.4l-1.7-2-2-1.7L66,82.3l-2.5-1.1-2.7-.7L58,80.3l-3,.2Zm128.8,0-2.5,1.1-2.3,1.4-2.1,1.7-1.7,2-1.4,2.3-1.1,2.5-.7,2.7-.2,2.8.2,2.8.7,2.7,1.1,2.5,1.4,2.3,1.7,2,2.1,1.7,2.3,1.4,2.5,1.1,2.7.7,2.8.2,2.8-.2,2.7-.7,2.5-1.1,2.3-1.4,2-1.7,1.7-2,1.4-2.3,1.1-2.5.7-2.7.2-2.8-.2-2.8-.7-2.7-1.1-2.5-1.4-2.3-1.7-2-2-1.7-2.3-1.4-2.5-1.1-2.7-.7-2.8-.2-2.8.2Z" transform="translate(-0.35 0.05)" fill="url(#linear-gradient)"/>
  <path id="g3xg6c89yK-2" d="M224.9,0l1.1.1,1,.1,1,.1,1,.2.9.2.9.2.9.2.9.3.8.3.8.3.8.3.7.4.7.4.7.4.6.5.6.5.6.5.5.6.5.6.5.6.5.6.4.6.4.7.4.7.3.8.3.8.3.8.2.8.2.9.2.9.2.9.1.9.1,1,.1,1v9.2l-.1,2v156l.1,8.4v37.7l-.1.5-.1.5-.1.5-.1.5-.1.5-.1.4-.2.5-.2.4-.2.4-.2.4-.2.4-.2.4-.2.4-.3.4-.3.4-.3.4-.3.4-.3.3-.4.3-.4.3-.4.3-.4.3-.4.3-.4.3-.4.3-.5.3-.5.2-.5.2-.5.2-.5.2-.5.2-.6.2-.6.2-.6.2-.6.2-.6.2-.7.2-.8.2-.9.2-1,.3-1.2.3-1.3.3-1.4.3-1.5.4-1.6.4-1.8.4-1.9.4-2,.5-2.1.5-2.2.5-2.3.6-2.4.6-2.6.6-2.7.7-2.8.7-2.9.7-3,.7-3.2.8-3.3.8-3.4.8-3.5.9-3.6.9-3.8.9-3.9.9-4,1-4.1,1-4.2,1-4.3,1-4.5,1.1-4.7,1.1-4.7,1.1-4.8,1.2-4.9,1.2-5,1.2-5.2,1.3-5.3,1.3-.7.1-.7.1-.7.1-.7.1-.7.1h-3l-.5-.1-.5-.1-.5-.1-.5-.1-.5-.1-.5-.1-.5-.2-.4-.2-.4-.2-.4-.2-.3-.2-.3-.3-.3-.3-.3-.3-.3-.3-.3-.4-.3-.4-.2-.4-.2-.4-.2-.4-.2-.4-.2-.5-.1-.5-.1-.5-.1-.5-.1-.5-.1-.6V254.3l.1-.6.1-.6.1-.6v-4l-.1-.4-.1-.4-.1-.4-.1-.4-.1-.4L97,246l-.1-.3-.1-.4-.1-.3-.2-.3-.2-.3-.2-.3-.2-.3-.2-.2-.2-.2-.2-.2L95,243l-.2-.2-.3-.2-.3-.1-.3-.1-.3-.1-.3-.1L93,242l-.3-.1-.3-.1-.4-.1H22.4l-1.1.1h-4l-.9-.1-.9-.1-.9-.1-.9-.1-.8-.1-.8-.2-.8-.2-.7-.2-.7-.2-.7-.5-.7-.3-.7-.3-.5-.4-.6-.4-.6-.4-.5-.4-.5-.5-.5-.5-.5-.5-.4-.5-.4-.6-.4-.6-.3-.6-.3-.6-.3-.5-.3-.7-.2-.7-.2-.7-.3-.7-.2-.8-.1-.8-.1-.8-.1-.8V21.5l-.1-1v-4l.1-.9.1-.9.1-.9.2-.9.2-.9.2-.8.3-.8.3-.7L2.2,9l.4-.7L3,7.7l.4-.6.4-.6.5-.6.5-.5.5-.5L6,4.4l.6-.5.6-.4L7.8,3l.7-.4.7-.3L10,2l.8-.3.8-.3.9-.2.9-.2.9-.2,1-.2,1-.2,1-.1,1-.1,1-.1H223.8ZM86.2,171.4l22.7,1L160.1,46.2h-21ZM52.4,81.2l-2.5,1.1-2.3,1.4-2,1.7-1.7,2-1.4,2.3-1.1,2.5-.7,2.7-.2,2.8.2,2.8.7,2.7,1.1,2.5,1.4,2.3,1.7,2,2,1.7,2.3,1.4,2.5,1.1,2.6.8,2.8.2,2.8-.2,2.7-.7,2.5-1.1,2.3-1.4,2-1.7,1.7-2,1.4-2.3,1.1-2.5.7-2.7.2-2.8L75.1,95l-.7-2.7-1.1-2.5L72,87.4l-1.7-2-2-1.7L66,82.3l-2.5-1.1-2.7-.7L58,80.3l-3,.2Zm128.8,0-2.5,1.1-2.3,1.4-2.1,1.7-1.7,2-1.4,2.3-1.1,2.5-.7,2.7-.2,2.8.2,2.8.7,2.7,1.1,2.5,1.4,2.3,1.7,2,2.1,1.7,2.3,1.4,2.5,1.1,2.7.7,2.8.2,2.8-.2,2.7-.7,2.5-1.1,2.3-1.4,2-1.7,1.7-2,1.4-2.3,1.1-2.5.7-2.7.2-2.8-.2-2.8-.7-2.7-1.1-2.5-1.4-2.3-1.7-2-2-1.7-2.3-1.4-2.5-1.1-2.7-.7-2.8-.2-2.8.2Z" transform="translate(-0.35 0.05)" fill-opacity="0" stroke="#fff" stroke-opacity="0" stroke-width="0.1" fill="url(#linear-gradient)"/>
  <path id="aXpZrSwq5" d="M683.8,23.9H826.3l1.2.1,1.1.1,1.1.1,1,.1,1,.2,1,.2,1,.2,1,.2.9.3.9.3.8.3.8.4.8.4.8.4.7.4.7.5.7.5.6.5.6.6.6.6.6.6.5.6.5.6.5.7.4.7.4.7.4.8.3.8.3.8.3.8.2.9.2.9.2.9.1,1,.1,1,.1,1,.1,1V198.3l-.1,1.1-.1,1-.1,1-.1,1-.2.9-.2.9-.2.9-.2.9-.2.9-.3.8-.3.8-.3.8-.3.8-.3.7-.4.7-.5.5-.4.6-.5.6-.5.6-.5.5-.5.5-.5.5-.6.5-.6.4-.6.4-.6.4-.7.3-.7.3-.7.3-.7.2-.8.2-.8.2-.8.2-.8.1-.8.1-.9.1-.9.1H808.2l-.3-.1-.3-.1-.3-.1-.3-.1-.3-.1-.3-.1-.2-.1-.3-.1-.2-.1-.2-.1-.2-.1-.2-.2-.2-.2-.2-.2-.2-.2-.2-.2-.2-.2-.2-.2-.2-.2-.1-.2-.2-.2-.1-.2-.1-.3-.1-.3-.1-.2-.1-.3-.1-.3-.1-.3-.1-.3-.1-.3-.1-.3-.1-.4V168l-.1-.4-.1-.3-.1-.3-.1-.3-.1-.3-.1-.3-.1-.3-.1-.2-.1-.3-.2-.2-.2-.2-.2-.2-.2-.2-.2-.2-.2-.2-.2-.2-.2-.2-.2-.2-.2-.2-.3-.1-.3-.1-.3-.1-.3-.1-.3-.1-.3-.1-.3-.1-.3-.1-.3-.1-.3-.1H707.7l-.3.1h-.6l-.3.1h-.3l-.3.1-.3.1-.2.1-.2.1-.2.1-.2.1-.2.1-.2.1-.2.1-.2.1-.2.1-.2.1-.2.1-.2.2-.1.1-.2.2-.1.2-.1.2-.1.2-.1.2-.1.2-.1.2-.1.2-.1.2-.1.1-.1.2v.2l-.1.2v44.8l-.1.4-.1.4-.1.4-.1.4-.1.4-.1.4-.1.4-.1.3-.1.3-.2.3-.2.3-.2.3-.2.3-.2.3-.2.2-.2.2-.2.2-.2.2-.2.2-.2.2-.2.2-.3.2-.3.2-.3.1-.3.1-.3.1-.3.1-.3.1-.3.1-.4.1-.3.1-.3.1H673.6l-.9-.1-.9-.1-.8-.1-.8-.2-.8-.2-.8-.2-.8-.3-.7-.3-.7-.3-.7-.4-.7-.4-.6-.4-.6-.5-.6-.5-.6-.5-.5-.5-.5-.6-.5-.6-.5-.6-.4-.7-.4-.7-.4-.7-.4-.8-.3-.8-.3-.9-.4-.6-.3-.9-.2-.9-.2-1-.2-1-.2-1-.2-1.1-.2-1.1-.1-1.1-.1-1.2V45.2l.1-1.1.1-1,.1-1.1.1-1,.2-1,.2-1,.2-.9.3-.9.3-.9.3-.8.4-.8.4-.8.4-.8.5-.7.5-.7.5-.7.5-.6.5-.6.6-.6.6-.5.7-.5.7-.5.7-.5.8-.4.8-.4.8-.4.8-.4.9-.3.9-.3.9-.2,1-.2,1-.2,1-.2,1.1-.1,1.1-.1,1.1-.1h6.4Zm-99.3,0h14.2l.8.1.8.1.8.1.8.1.8.2.7.2.7.2.7.2.7.2.7.3.6.3.6.3.6.4.6.4.5.4.5.4.5.5.5.5.5.5.4.5.4.5.4.6.4.6.4.6.3.6.3.6.3.7.3.7.3.7.2.7.2.8.2.8.2.8.2.8.2.8.1.9.1.9.1,1V198.8l-.1,1.7-.2,1.6-.2,1.5-.3,1.4-.4,1.3-.5,1.2-.5,1.2-.6,1.1-.6,1-.7.9-.8.9-.8.8-.9.7-.9.7-1,.6-1,.5-1,.5-1.1.4-1.1.4-1.1.4-1.1.3-1.2.2-1.2.2-1.2.2-1.2.1-1.2.1-1.2.1-1.2.1-1.2.1H578.2l-.6-.1-.5-.1-.5-.1-.5-.1-.5-.1-.5-.1-.5-.1-.5-.1-.4-.2-.4-.2-.4-.2-.4-.2-.4-.2-.4-.2-.3-.2-.3-.3-.3-.3-.3-.3-.3-.3-.2-.3-.2-.3-.2-.4-.2-.4-.2-.4-.2-.4-.2-.4-.1-.4-.1-.4-.1-.4-.1-.4-.1-.5-.1-.5V33.7l.1-.5.1-.5.1-.5.1-.5.1-.4.1-.4.1-.4.1-.4.1-.4.2-.4.1-.4.2-.4.2-.3.2-.2.2-.3.2-.3.2-.3.2-.3.2-.3.2-.2.2-.2.3-.2.3-.2.3-.2.3-.2.4-.3.3-.2.3-.1.3-.1.3-.1.4-.1.4-.1.4-.1.4-.1.4-.1h8.2Zm-77.9-1.3,1.2.1,1.2.1,1.2.2,1.2.2,1.2.2,1.2.3,1.2.3,1.2.4,1.1.5,1.1.5,1.1.6,1,.6,1,.7,1,.8.9.9.9,1,.8,1,.8,1.1.7,1.2.6,1.3.5,1.4.5,1.5.4,1.7.3,1.7.2,1.9.1,2V199l-.1,1-.1,1-.1.9-.1.9-.2.9-.2.9-.2.9-.2.8-.3.8-.3.8-.3.7-.3.7-.4.7-.4.7-.4.6-.5.6-.5.6-.5.6-.5.5-.6.5-.6.5-.6.4-.6.4-.7.4-.7.4-.7.4-.7.3-.8.3-.8.3-.8.2-.8.2-.9.2-.9.2-.9.1-1,.1-1,.1-1,.1H489.3l-.4-.1-.4-.1-.4-.1-.4-.1-.4-.1-.4-.1-.3-.1-.3-.2-.3-.1-.3-.2-.3-.2-.3-.2-.2-.2-.3-.2-.2-.2-.2-.2-.2-.3-.2-.3-.2-.3-.2-.3-.2-.3-.1-.3-.1-.3V214l-.1-.4-.1-.4-.1-.4-.1-.4-.1-.4V155l.1-.3v-2.3l-.1-.2-.1-.2-.1-.2-.1-.2-.1-.2-.1-.2-.1-.2-.1-.2-.1-.2-.1-.2-.2-.2-.1-.1-.2-.1-.2-.1-.2-.1-.2-.1-.2-.1-.2-.1-.2-.1-.2-.1-.2-.1-.3-.1-.3-.1h-.3l-.3-.1H385.6l-.2.1-.2.1-.2.1V149l-.1.1-.1.1-.1.1-.1.1-.1.1-.1.2-.4.3-.1.2-.1.2-.1.2-.1.2-.1.2-.1.2-.1.2-.1.3-.1.3-.1.3-.1.3-.1.3v57.4l-.1.4-.1.5-.1.4-.1.4-.1.4-.1.4-.1.4-.1.4-.2.4-.2.4-.2.4-.2.3-.2.3-.2.3-.2.3-.2.3-.3.2-.3.3-.3.2H379l-.3.2-.3.2-.4.2-.4.2-.4.2-.4.1-.4.1-.4.1-.4.1-.4.1-.5.1-.5.1h-.5l-.5.1H356.1l-1-.1-1-.1-1-.1-.9-.2-.9-.2-.9-.2-.9-.3-.8-.3-.8-.3-.8-.4-.7-.4-.7-.5-.7-.5-.7-.5-.6-.6-.6-.6-.6-.6-.6-.7-.5-.7-.4-.5-.5-.8-.5-.8-.4-.9-.4-.9-.4-.9-.3-.9-.3-1-.3-1-.3-1.1-.2-1.1-.2-1.1-.2-1.2-.1-1.2-.1-1.2-.1-1.3-.1-1.3V44.5l.1-1.1.1-1.1.2-1,.2-1,.2-1,.2-1,.3-.9.3-.9.3-.9.3-.8.4-.8.4-.8.4-.8.4-.7L340,31l.5-.7.5-.6.5-.6.5-.6.5-.6.6-.5.6-.5.6-.5.6-.5.6-.4.7-.4.7-.4.7-.3.8-.3.8-.3.8-.2.8-.2.8-.2.8-.2.9-.1.9-.1.9-.1H374l.5.1.4.1.4.1.4.1.4.1.4.1.4.1.4.1.4.1.4.1.3.2.3.2.3.2.3.2.3.2.3.2.3.2.3.2.2.2.2.2.2.3.2.3.2.3.2.3.2.3.2.3.1.3.1.3.1.4.1.4.1.4.1.4.1.4.1.4.1.4v69.5l.1.2v.1l.1.2.1.1.1.2.1.1.1.1.1.1.1.1.1.1.1.1.1.1.1.1.1.1.1.1.1.1.2.1.2.1.2.1h95.5l.1-.1.1-.1.1-.1.1-.1.1-.1.1-.1.1-.1.1-.1.1-.1.1-.1.1-.1.1-.2.1-.1h.2l.1-.2.1-.2.1-.2v-.2l.1-.2V33l.1-.5.1-.5.1-.5.1-.5.1-.5.1-.5.1-.5.1-.4.1-.4.2-.4.2-.4.2-.4.2-.4.2-.4.2-.3.2-.3.2-.3.2-.3.2-.3.3-.3.3-.2.3-.2.3-.2.3-.2.3-.2.3-.2.4-.2.4-.1.4-.1.4-.1.4-.1.4-.1.4-.1.4-.1.4-.1h14.2ZM703.3,70.4h-.4l-.1.1h-.5v.1h0l-.1.1v44.4h.1v.2h.2l.1.1h99.5l.1-.1h.1l.1-.1v-.1h0V70.7h0l-.1-.1h-.4l-.1-.1H703.5Z" transform="translate(-0.35 0.05)" fill="#424c4f"/>
  <path d="M343.7,260h-4.9v-3.1H352V260h-4.9v12.8h-3.4Z" transform="translate(-0.35 0.05)" fill="#424c4f"/>
  <path d="M372.9,256.9v15.9h-3.4v-6.5h-7.2v6.5h-3.4V256.9h3.4v6.2h7.2v-6.2Z" transform="translate(-0.35 0.05)" fill="#424c4f"/>
  <path d="M384.1,260v3.2h8v3.1h-8v3.5h8.8v3.1H380.7V257h12.2v3.1h-8.8Z" transform="translate(-0.35 0.05)" fill="#424c4f"/>
  <path d="M410.1,270.4l2-2.3a8.31,8.31,0,0,0,5.2,2.1c1.7,0,2.6-.8,2.6-1.8s-.9-1.5-3.3-2c-3.4-.8-5.7-1.7-5.7-4.8s2.4-4.9,5.9-4.9a8.76,8.76,0,0,1,6.2,2.2l-1.8,2.4a7.72,7.72,0,0,0-4.5-1.8c-1.5,0-2.3.8-2.3,1.7,0,1.1,1,1.5,3.4,2.1,3.4.8,5.7,1.8,5.7,4.7s-2.3,5-6.2,5A9.72,9.72,0,0,1,410.1,270.4Z" transform="translate(-0.35 0.05)" fill="#424c4f"/>
  <path d="M429.7,264.8a8.42,8.42,0,0,1,14.6-5.5l-2.5,2.2a5.26,5.26,0,0,0-3.7-1.8,5.1,5.1,0,0,0,0,10.2,4.9,4.9,0,0,0,3.7-1.8l2.5,2.2a8.38,8.38,0,0,1-6.2,2.6A8.26,8.26,0,0,1,429.7,264.8Z" transform="translate(-0.35 0.05)" fill="#424c4f"/>
  <path d="M451,256.9h3.4v15.9H451Z" transform="translate(-0.35 0.05)" fill="#424c4f"/>
  <path d="M465.6,260v3.2h8v3.1h-8v3.5h8.8v3.1H462.2V257h12.2v3.1h-8.8Z" transform="translate(-0.35 0.05)" fill="#424c4f"/>
  <path d="M481.8,256.9h3.4l7.6,10.2V256.9h3.4v15.9h-3.4l-7.6-10.2v10.2h-3.4Z" transform="translate(-0.35 0.05)" fill="#424c4f"/>
  <path d="M503.5,264.8a8.42,8.42,0,0,1,14.5-5.5l-2.5,2.2a5.26,5.26,0,0,0-3.7-1.8,5.1,5.1,0,0,0,0,10.2,4.9,4.9,0,0,0,3.7-1.8l2.5,2.2a8.38,8.38,0,0,1-6.2,2.6A8.17,8.17,0,0,1,503.5,264.8Z" transform="translate(-0.35 0.05)" fill="#424c4f"/>
  <path d="M528.2,260v3.2h8v3.1h-8v3.5H537v3.1H524.8V257H537v3.1h-8.8Z" transform="translate(-0.35 0.05)" fill="#424c4f"/>
  <path d="M554.6,264.8a8.45,8.45,0,1,1,16.9-.5,8.41,8.41,0,0,1-8.2,8.7h-.2A8.37,8.37,0,0,1,554.6,264.8Zm13.3,0a5,5,0,1,0-5,5.2A5.06,5.06,0,0,0,567.9,264.8Z" transform="translate(-0.35 0.05)" fill="#424c4f"/>
  <path d="M582,260v3.4h8v3.1h-8v6.3h-3.4V256.9h12.2V260Z" transform="translate(-0.35 0.05)" fill="#424c4f"/>
  <path d="M608.2,264.8a8.42,8.42,0,0,1,14.6-5.5l-2.5,2.2a5.26,5.26,0,0,0-3.7-1.8,5.1,5.1,0,0,0,0,10.2,4.9,4.9,0,0,0,3.7-1.8l2.5,2.2a8.38,8.38,0,0,1-6.2,2.6A8.26,8.26,0,0,1,608.2,264.8Z" transform="translate(-0.35 0.05)" fill="#424c4f"/>
  <path d="M628.5,264.8a8.54,8.54,0,0,1,8.2-8.7,8.41,8.41,0,0,1,8.7,8.2,8.54,8.54,0,0,1-8.2,8.7H637A8.5,8.5,0,0,1,628.5,264.8Zm13.4,0a4.94,4.94,0,0,0-5.2-4.7,4.88,4.88,0,0,0-4.7,5.2,5,5,0,0,0,5,4.7A5.1,5.1,0,0,0,641.9,264.8Z" transform="translate(-0.35 0.05)" fill="#424c4f"/>
  <path d="M652.6,256.9H656l7.6,10.2V256.9H667v15.9h-3.4L656,262.6v10.2h-3.4Z" transform="translate(-0.35 0.05)" fill="#424c4f"/>
  <path d="M690.4,256.9,684,272.8h-3.8l-6.5-15.9h3.8l4.5,11.2,4.5-11.2Z" transform="translate(-0.35 0.05)" fill="#424c4f"/>
  <path d="M700.3,260v3.2h8v3.1h-8v3.5h8.8v3.1H696.9V257h12.2v3.1h-8.8Z" transform="translate(-0.35 0.05)" fill="#424c4f"/>
  <path d="M725.8,272.8l-3.6-5.1h-2.5v5.1h-3.4V256.9h7.1c3.4,0,6,2.2,6,5.4a5.16,5.16,0,0,1-3.6,5l3.9,5.5Zm-6.1-8.3h3.4c1.7,0,2.8-.9,2.8-2.2s-1.2-2.2-2.8-2.2h-3.4Z" transform="translate(-0.35 0.05)" fill="#424c4f"/>
  <path d="M735.5,270.4l2-2.3a8.31,8.31,0,0,0,5.2,2.1c1.7,0,2.6-.8,2.6-1.8s-.9-1.5-3.3-2c-3.3-.8-5.7-1.7-5.7-4.8s2.4-4.9,5.9-4.9a8.76,8.76,0,0,1,6.2,2.2l-1.8,2.4a7.72,7.72,0,0,0-4.5-1.8c-1.5,0-2.3.8-2.3,1.7,0,1.1.9,1.5,3.4,2.1,3.4.8,5.7,1.8,5.7,4.7s-2.3,5-6.2,5A9.87,9.87,0,0,1,735.5,270.4Z" transform="translate(-0.35 0.05)" fill="#424c4f"/>
  <path d="M766.4,270.3h-7.1l-1,2.5h-3.8L761,257h3.8l6.5,15.9h-3.8Zm-1.2-2.9-2.4-5.8-2.3,5.8Z" transform="translate(-0.35 0.05)" fill="#424c4f"/>
  <path d="M780.3,260h-4.9v-3.1h13.3V260h-4.9v12.8h-3.4V260Z" transform="translate(-0.35 0.05)" fill="#424c4f"/>
  <path d="M795.6,256.9H799v15.9h-3.4Z" transform="translate(-0.35 0.05)" fill="#424c4f"/>
  <path d="M806.1,264.8a8.4,8.4,0,1,1,8.6,8.2h-.2A8.48,8.48,0,0,1,806.1,264.8Zm13.4,0a4.9,4.9,0,1,0-4.9,5.1A5,5,0,0,0,819.5,264.8Z" transform="translate(-0.35 0.05)" fill="#424c4f"/>
  <path d="M830.2,256.9h3.4l7.6,10.2V256.9h3.4v15.9h-3.4l-7.6-10.2v10.2h-3.4Z" transform="translate(-0.35 0.05)" fill="#424c4f"/>
  <path d="M862.1,32.6h-3.5V30.8h9v1.8H864v9.2h-2Z" transform="translate(-0.35 0.05)" fill="#424c4f"/>
  <path d="M869.4,30.8h2l3.6,6.7,3.6-6.7h2v11h-2V34.4L875,41.1l-3.6-6.7v7.3h-2Z" transform="translate(-0.35 0.05)" fill="#424c4f"/>
</svg>
